<svg xmlns="http://www.w3.org/2000/svg" width="96" height="96" viewBox="0 0 96 96" fill="none">
  <path d="M48 54.8C52.4183 54.8 56 51.2183 56 46.8C56 42.3817 52.4183 38.8 48 38.8C43.5817 38.8 40 42.3817 40 46.8C40 51.2183 43.5817 54.8 48 54.8Z" fill="#149ECA"/>
  <path d="M48 64.8C70.0914 64.8 88 56.7411 88 46.8C88 36.8589 70.0914 28.8 48 28.8C25.9086 28.8 8 36.8589 8 46.8C8 56.7411 25.9086 64.8 48 64.8Z" stroke="#149ECA" stroke-width="3"/>
  <path d="M32.4115 55.8C43.4572 74.9317 59.3907 86.4116 68 81.441C76.6093 76.4704 74.6341 56.9317 63.5884 37.8C52.5427 18.6683 36.6093 7.18842 28 12.159C19.3907 17.1295 21.3658 36.6683 32.4115 55.8Z" stroke="#149ECA" stroke-width="3"/>
  <path d="M32.4115 37.8C21.3658 56.9317 19.3907 76.4704 28 81.441C36.6093 86.4116 52.5427 74.9317 63.5884 55.8C74.6341 36.6683 76.6093 17.1295 68 12.159C59.3907 7.18842 43.4572 18.6683 32.4115 37.8Z" stroke="#149ECA" stroke-width="3"/>
</svg>