<svg width="32" height="32" viewBox="0 0 32 32" fill="none" xmlns="http://www.w3.org/2000/svg">
<path d="M16 18.2667C17.4728 18.2667 18.6667 17.0728 18.6667 15.6C18.6667 14.1272 17.4728 12.9333 16 12.9333C14.5272 12.9333 13.3333 14.1272 13.3333 15.6C13.3333 17.0728 14.5272 18.2667 16 18.2667Z" fill="#149ECA"/>
<path d="M16 21.6C23.3638 21.6 29.3333 18.9137 29.3333 15.6C29.3333 12.2863 23.3638 9.6 16 9.6C8.6362 9.6 2.66666 12.2863 2.66666 15.6C2.66666 18.9137 8.6362 21.6 16 21.6Z" stroke="#149ECA"/>
<path d="M10.8038 18.6C14.4857 24.9772 19.7969 28.8039 22.6667 27.147C25.5364 25.4901 24.878 18.9772 21.1961 12.6C17.5143 6.22276 12.2031 2.39614 9.33333 4.05299C6.46358 5.70985 7.12195 12.2228 10.8038 18.6Z" stroke="#149ECA"/>
<path d="M10.8038 12.6C7.12195 18.9772 6.46358 25.4901 9.33333 27.147C12.2031 28.8039 17.5143 24.9772 21.1961 18.6C24.878 12.2228 25.5364 5.70985 22.6667 4.05299C19.7969 2.39614 14.4857 6.22276 10.8038 12.6Z" stroke="#149ECA"/>
</svg>
